<svg width="1366" height="1663" viewBox="0 0 1366 1663" fill="none" xmlns="http://www.w3.org/2000/svg">
<path d="M482.297 39C483.442 43.3266 482.627 48.1188 480.123 51.8052C477.619 55.4915 473.445 58.0137 469 58.5376C473.27 57.4705 477.774 59.9151 480.453 63.4074C483.131 66.8804 484.354 71.2458 485.519 75.4753C484.51 67.6952 491.012 59.7793 498.835 59.2554C494.235 60.1479 489.556 57.3153 486.878 53.4738C484.199 49.6322 483.325 43.5788 482.297 39.0194" fill="#E94E21"/>
<path d="M99.1333 223C99.8321 225.639 99.3274 228.568 97.7939 230.819C96.2604 233.07 93.7176 234.602 91 234.932C93.6011 234.292 96.3575 235.766 97.988 237.901C99.6186 240.035 100.356 242.673 101.074 245.273C100.453 240.52 104.433 235.689 109.208 235.378C106.393 235.922 103.54 234.195 101.909 231.847C100.279 229.5 99.7351 225.813 99.1139 223.019" fill="#ED7B2F"/>
<path d="M1303.13 1633C1303.83 1635.64 1303.33 1638.57 1301.79 1640.82C1300.26 1643.07 1297.72 1644.6 1295 1644.93C1297.6 1644.29 1300.36 1645.77 1301.99 1647.9C1303.62 1650.03 1304.36 1652.67 1305.07 1655.27C1304.45 1650.52 1308.43 1645.69 1313.21 1645.38C1310.39 1645.92 1307.54 1644.19 1305.91 1641.85C1304.28 1639.5 1303.74 1635.81 1303.11 1633.02" fill="#ED7B2F"/>
<path d="M772.568 996.794C773.694 995.067 772.122 992.292 771.792 990.061C771.52 988.14 771.365 985.851 772.879 984.648C774.567 983.29 777.11 984.28 778.76 985.657C780.43 987.035 781.944 988.839 784.079 989.208C788 989.887 790.912 985.385 794.794 984.493C795.104 984.415 795.415 984.377 795.726 984.435C797.24 984.706 797.278 986.841 797.046 988.373C796.366 992.933 797.162 998.21 800.85 1000.98C801.859 1001.74 803.024 1002.27 803.995 1003.06C804.965 1003.86 805.742 1005.08 805.548 1006.32C805.353 1007.62 804.189 1008.51 803.082 1009.21C801.219 1010.39 799.22 1011.38 797.162 1012.16C796.405 1012.45 795.59 1012.74 795.163 1013.42C794.852 1013.91 794.774 1014.51 794.755 1015.07C794.716 1016.84 795.201 1018.6 795.124 1020.37C795.046 1022.13 794.173 1024.09 792.464 1024.58C790.679 1025.1 788.893 1023.84 787.592 1022.5C786.292 1021.16 784.991 1019.61 783.147 1019.3C780.915 1018.91 778.896 1020.54 777.013 1021.82C775.13 1023.1 772.393 1023.98 770.743 1022.4C769.579 1021.3 769.579 1019.44 769.909 1017.86C770.239 1016.29 770.86 1014.72 770.627 1013.13C770.297 1010.72 768.181 1009 766.104 1007.74C764.027 1006.48 761.717 1005.31 760.494 1003.22C760.184 1002.71 759.951 1002.13 760.009 1001.53C760.048 1000.98 760.32 1000.48 760.669 1000.05C762.319 998.113 765.308 998.288 767.851 998.54C770.394 998.792 771.17 998.928 772.568 996.794Z" fill="#FDC000"/>
<path d="M13.5297 0C14.6943 4.4042 13.8596 9.27404 11.3168 13.038C8.77389 16.8019 4.5034 19.363 0 19.8868C4.32869 18.8003 8.92917 21.2838 11.6661 24.8343C14.3837 28.3848 15.626 32.8084 16.81 37.1156C15.7812 29.1997 22.4006 21.1285 30.3786 20.6047C25.7005 21.5165 20.9253 18.6257 18.2077 14.7259C15.4901 10.8068 14.5972 4.65642 13.549 0" fill="#00A55F"/>
<path d="M1036.3 928C1037.44 932.327 1036.63 937.119 1034.12 940.805C1031.62 944.492 1027.45 947.014 1023 947.538C1027.27 946.47 1031.77 948.915 1034.45 952.407C1037.13 955.88 1038.35 960.246 1039.52 964.475C1038.51 956.695 1045.01 948.779 1052.83 948.255C1048.23 949.148 1043.56 946.315 1040.88 942.474C1038.2 938.632 1037.33 932.579 1036.3 928.019" fill="#E94E21"/>
<path d="M43.8891 1509.02C44.9955 1513.19 44.2191 1517.85 41.7732 1521.42C39.3468 1524.99 35.3093 1527.43 31 1527.94C35.1346 1526.91 39.5021 1529.27 42.0838 1532.65C44.6655 1536.03 45.8496 1540.24 46.9754 1544.33C46.0049 1536.8 52.2941 1529.12 59.8839 1528.62C55.4387 1529.49 50.8965 1526.73 48.3148 1523.01C45.7331 1519.28 44.879 1513.42 43.8696 1509" fill="#FDC000"/>
<path d="M366.786 1491.97C367.484 1490.91 366.514 1489.16 366.3 1487.78C366.126 1486.6 366.029 1485.16 366.98 1484.41C368.028 1483.55 369.62 1484.18 370.649 1485.03C371.677 1485.88 372.628 1487.01 373.968 1487.24C376.414 1487.67 378.219 1484.85 380.645 1484.29C380.839 1484.25 381.034 1484.21 381.228 1484.25C382.179 1484.43 382.198 1485.75 382.062 1486.7C381.635 1489.53 382.14 1492.83 384.43 1494.56C385.052 1495.02 385.789 1495.35 386.391 1495.86C386.993 1496.36 387.478 1497.12 387.362 1497.87C387.226 1498.69 386.507 1499.23 385.828 1499.68C384.663 1500.41 383.421 1501.04 382.14 1501.52C381.674 1501.7 381.169 1501.89 380.898 1502.3C380.704 1502.59 380.645 1502.98 380.645 1503.32C380.626 1504.43 380.917 1505.52 380.878 1506.62C380.839 1507.73 380.276 1508.93 379.228 1509.24C378.122 1509.57 376.996 1508.78 376.181 1507.96C375.365 1507.15 374.55 1506.16 373.424 1505.96C372.027 1505.73 370.784 1506.74 369.6 1507.54C368.416 1508.33 366.727 1508.87 365.699 1507.9C364.98 1507.21 364.98 1506.06 365.175 1505.07C365.369 1504.08 365.757 1503.11 365.621 1502.12C365.408 1500.63 364.088 1499.54 362.806 1498.77C361.506 1497.97 360.069 1497.25 359.312 1495.95C359.118 1495.64 358.982 1495.27 359.002 1494.9C359.021 1494.56 359.196 1494.24 359.409 1493.99C360.438 1492.79 362.302 1492.89 363.874 1493.04C365.446 1493.2 365.932 1493.27 366.805 1491.96L366.786 1491.97Z" fill="#E94E21"/>
<path d="M225.401 1626C226.552 1630.35 225.721 1635.17 223.194 1638.88C220.667 1642.59 216.478 1645.12 212 1645.66C216.286 1644.61 220.827 1647.03 223.514 1650.55C226.2 1654.07 227.416 1658.41 228.599 1662.7C227.576 1654.87 234.132 1646.91 242 1646.4C237.362 1647.29 232.661 1644.45 229.974 1640.58C227.288 1636.71 226.392 1630.64 225.369 1626.03" fill="#E094C0"/>
<path d="M867.56 45.0194C868.298 47.7938 867.774 50.8787 866.163 53.2651C864.552 55.6515 861.853 57.2619 859 57.5917C861.737 56.9127 864.649 58.4842 866.376 60.7154C868.104 62.9466 868.88 65.7598 869.637 68.4761C868.997 63.4704 873.17 58.3678 878.217 58.038C875.267 58.62 872.238 56.7962 870.53 54.3128C868.822 51.8294 868.24 47.9491 867.58 45" fill="#FDC000"/>
<path d="M1219.57 1496.79C1220.69 1495.07 1219.12 1492.29 1218.79 1490.06C1218.52 1488.14 1218.36 1485.85 1219.88 1484.65C1221.57 1483.29 1224.11 1484.28 1225.76 1485.66C1227.43 1487.03 1228.94 1488.84 1231.08 1489.21C1235 1489.89 1237.91 1485.39 1241.79 1484.49C1242.1 1484.42 1242.41 1484.38 1242.73 1484.43C1244.24 1484.71 1244.28 1486.84 1244.05 1488.37C1243.37 1492.93 1244.16 1498.21 1247.85 1500.98C1248.86 1501.74 1250.02 1502.27 1250.99 1503.06C1251.97 1503.86 1252.74 1505.08 1252.55 1506.32C1252.35 1507.62 1251.19 1508.51 1250.08 1509.21C1248.22 1510.39 1246.22 1511.38 1244.16 1512.16C1243.4 1512.45 1242.59 1512.74 1242.16 1513.42C1241.85 1513.91 1241.77 1514.51 1241.75 1515.07C1241.72 1516.84 1242.2 1518.6 1242.12 1520.37C1242.05 1522.13 1241.17 1524.09 1239.46 1524.58C1237.68 1525.1 1235.89 1523.84 1234.59 1522.5C1233.29 1521.16 1231.99 1519.61 1230.15 1519.3C1227.91 1518.91 1225.9 1520.54 1224.01 1521.82C1222.13 1523.1 1219.39 1523.98 1217.74 1522.4C1216.58 1521.3 1216.58 1519.44 1216.91 1517.86C1217.24 1516.29 1217.86 1514.72 1217.63 1513.13C1217.3 1510.72 1215.18 1509 1213.1 1507.74C1211.03 1506.48 1208.72 1505.31 1207.49 1503.22C1207.18 1502.71 1206.95 1502.13 1207.01 1501.53C1207.05 1500.98 1207.32 1500.48 1207.67 1500.05C1209.32 1498.11 1212.31 1498.29 1214.85 1498.54C1217.39 1498.79 1218.17 1498.93 1219.57 1496.79Z" fill="#9B96C9"/>
<path d="M1092.14 1547.89C1095.16 1545.41 1098.18 1542.94 1101.2 1540.46C1100.46 1543.38 1099.91 1546.35 1099.56 1549.35C1099.5 1549.8 1099.46 1550.24 1099.64 1550.65C1099.86 1551.11 1100.32 1551.4 1100.76 1551.67C1103.13 1553.09 1105.51 1554.5 1107.89 1555.94C1104.87 1556.82 1101.86 1557.7 1098.85 1558.6C1098.44 1558.73 1098.01 1558.86 1097.71 1559.16C1097.38 1559.52 1097.27 1560.05 1097.2 1560.52C1096.73 1563.31 1096.28 1566.12 1095.82 1568.91C1094.12 1566.16 1092.43 1563.41 1090.76 1560.66C1090.54 1560.3 1090.29 1559.91 1089.89 1559.76C1089.61 1559.67 1089.31 1559.69 1089.02 1559.72C1086.36 1560.05 1083.69 1560.39 1081.04 1560.72C1082.33 1558.2 1083.62 1555.67 1084.91 1553.16C1085.14 1552.69 1085.39 1552.2 1085.35 1551.66C1085.33 1551.28 1085.16 1550.95 1085 1550.61C1083.92 1548.47 1082.85 1546.34 1081.77 1544.2C1085.36 1544.91 1088.82 1546.17 1092.03 1547.93" fill="#00A55F"/>
<path d="M1092.46 1548.37C1095.48 1545.9 1098.51 1543.42 1101.53 1540.94L1100.61 1540.33C1100.16 1542.11 1099.78 1543.92 1099.46 1545.74C1099.22 1547.15 1098.57 1549.21 1099 1550.62C1099.4 1551.94 1101.05 1552.53 1102.12 1553.18C1103.94 1554.27 1105.77 1555.36 1107.59 1556.45L1107.67 1555.36C1105.71 1555.93 1103.77 1556.49 1101.82 1557.08C1100.48 1557.47 1098.23 1557.66 1097.22 1558.75C1096.29 1559.76 1096.36 1561.74 1096.14 1563C1095.82 1564.92 1095.5 1566.85 1095.18 1568.78L1096.25 1568.56C1095.27 1566.97 1094.28 1565.35 1093.3 1563.76C1092.84 1562.99 1092.37 1562.23 1091.91 1561.46C1091.51 1560.84 1091.16 1560.01 1090.59 1559.53C1089.59 1558.69 1087.94 1559.26 1086.81 1559.42C1084.86 1559.65 1082.91 1559.89 1080.96 1560.16L1081.53 1561.01C1082.33 1559.43 1083.14 1557.86 1083.94 1556.28C1084.57 1555.03 1085.65 1553.6 1085.87 1552.18C1086.05 1551.06 1085.29 1550 1084.81 1549.06C1083.93 1547.33 1083.07 1545.61 1082.19 1543.88L1081.58 1544.8C1085.13 1545.52 1088.5 1546.75 1091.7 1548.47C1092.37 1548.83 1092.89 1547.76 1092.22 1547.41C1088.95 1545.64 1085.47 1544.38 1081.82 1543.63C1081.27 1543.51 1080.98 1544.1 1081.21 1544.55C1081.87 1545.87 1082.53 1547.18 1083.19 1548.49C1083.54 1549.16 1083.86 1549.81 1084.2 1550.47C1084.68 1551.43 1084.76 1551.84 1084.34 1552.92C1083.32 1555.51 1081.73 1558 1080.47 1560.48C1080.27 1560.85 1080.59 1561.4 1081.04 1561.33C1082.55 1561.14 1084.05 1560.97 1085.56 1560.77C1086.27 1560.68 1086.97 1560.59 1087.68 1560.51C1088.9 1560.36 1089.68 1560.38 1090.51 1561.45C1091.34 1562.53 1092.03 1563.92 1092.76 1565.13C1093.6 1566.5 1094.45 1567.87 1095.29 1569.25C1095.56 1569.67 1096.29 1569.53 1096.37 1569.04C1096.62 1567.46 1096.9 1565.89 1097.15 1564.32C1097.37 1563.02 1097.33 1560.05 1098.61 1559.29C1099.16 1558.97 1100 1558.87 1100.62 1558.69C1101.42 1558.46 1102.22 1558.22 1103.01 1557.99C1104.68 1557.5 1106.38 1557.01 1108.06 1556.52C1108.58 1556.37 1108.56 1555.68 1108.15 1555.43C1106.8 1554.63 1105.46 1553.81 1104.11 1553.01C1103.4 1552.59 1102.68 1552.15 1101.97 1551.74C1100.87 1551.08 1100.13 1550.83 1100.18 1549.24C1100.25 1546.4 1101.1 1543.35 1101.79 1540.61C1101.92 1540.14 1101.28 1539.65 1100.87 1540L1091.8 1547.43C1091.2 1547.91 1091.86 1548.9 1092.46 1548.42L1092.46 1548.37Z" fill="white"/>
<path d="M1084.39 1552.71C1067.54 1545.6 1048.23 1544.13 1031.02 1550.32C1026.25 1552.03 1021.36 1554.54 1019.01 1559.03C1018.38 1560.22 1017.95 1561.58 1018.2 1562.89C1018.46 1564.2 1019.49 1565.45 1020.84 1565.57C1022.98 1565.76 1024.29 1563.4 1025.57 1561.67C1028.48 1557.8 1034.13 1554.5 1038.2 1553.01C1053.63 1547.31 1069.03 1550.63 1084.41 1552.69" fill="#00A55F"/>
<path d="M1084.66 1552.17C1075.14 1548.21 1064.95 1545.93 1054.61 1545.83C1045.01 1545.74 1034.56 1547.35 1025.98 1551.84C1022.48 1553.68 1018.6 1556.69 1017.7 1560.77C1017.1 1563.56 1019.05 1567.17 1022.33 1565.89C1024.02 1565.25 1024.97 1563.38 1026.03 1562.05C1027.68 1559.9 1029.82 1558.19 1032.09 1556.74C1036.65 1553.83 1041.85 1552.12 1047.16 1551.23C1059.54 1549.14 1072.04 1551.61 1084.29 1553.28C1085.04 1553.38 1085.29 1552.21 1084.54 1552.11C1067.47 1549.8 1048.17 1545.77 1032.37 1555.17C1028.77 1557.31 1026.43 1559.93 1023.8 1563.1C1022.83 1564.25 1022.62 1564.53 1021.05 1564.48C1019.55 1564.42 1019.15 1564.27 1018.82 1562.72C1018.56 1561.42 1019.09 1560.08 1019.72 1558.97C1020.97 1556.76 1022.93 1555.06 1025.06 1553.74C1032.9 1548.9 1043.22 1547.25 1052.27 1547.04C1063.21 1546.78 1074.07 1549.05 1084.14 1553.25C1084.85 1553.54 1085.38 1552.49 1084.67 1552.19L1084.66 1552.17Z" fill="white"/>
<path d="M1327.66 54.1418C1331.4 53.0167 1335.14 51.8915 1338.88 50.7663C1337.07 53.1871 1335.43 55.7269 1333.94 58.3424C1333.7 58.7214 1333.51 59.1476 1333.51 59.5837C1333.52 60.0896 1333.83 60.5373 1334.15 60.9418C1335.8 63.1781 1337.44 65.3877 1339.09 67.6239C1335.97 67.2812 1332.86 66.9487 1329.74 66.6059C1329.31 66.5658 1328.86 66.5153 1328.48 66.689C1328.03 66.8915 1327.74 67.3262 1327.48 67.7381C1325.99 70.1439 1324.49 72.5496 1322.99 74.9554C1322.49 71.7622 1322 68.5792 1321.48 65.4025C1321.43 64.9789 1321.34 64.5348 1321.01 64.2435C1320.8 64.0403 1320.5 63.969 1320.21 63.8812C1317.63 63.1711 1315.04 62.4508 1312.47 61.7407C1314.63 59.9115 1316.78 58.072 1318.95 56.2427C1319.35 55.8963 1319.77 55.5436 1319.93 55.027C1320.04 54.6627 1320.03 54.2863 1319.98 53.9162C1319.8 51.5203 1319.63 49.1512 1319.45 46.7553C1322.49 48.7808 1325.21 51.2738 1327.49 54.1258" fill="#FDC000"/>
<path d="M1327.8 54.7298C1331.54 53.6046 1335.27 52.4794 1339.01 51.3543L1338.38 50.4589C1337.14 52.1298 1335.99 53.8354 1334.89 55.5985C1334.2 56.7025 1332.87 58.2522 1332.95 59.6446C1333.01 60.9403 1334.33 62.1694 1335.05 63.1428C1336.25 64.7794 1337.47 66.4099 1338.67 68.0465L1339.13 67.052C1337.12 66.8302 1335.09 66.5982 1333.07 66.3929C1331.68 66.2376 1329.61 65.5922 1328.28 66.1567C1327.07 66.6633 1326.41 68.3535 1325.78 69.3751C1324.68 71.1382 1323.59 72.9013 1322.49 74.6644L1323.57 74.8348C1323.28 72.9596 1322.98 71.0844 1322.68 69.2092C1322.53 68.2716 1322.38 67.334 1322.24 66.3964C1322.12 65.7323 1322.13 64.9136 1321.79 64.3158C1321.2 63.2147 1319.53 63.0949 1318.46 62.7949C1316.53 62.2583 1314.6 61.7216 1312.65 61.1912L1312.89 62.2067C1314.18 61.1158 1315.47 59.9981 1316.77 58.9071C1317.91 57.9502 1319.61 56.9489 1320.32 55.6124C1320.88 54.5662 1320.54 53.1662 1320.44 52.0331C1320.32 50.2871 1320.19 48.5411 1320.07 46.7951L1319.17 47.2867C1322.16 49.3081 1324.8 51.7499 1327.08 54.5586C1327.56 55.152 1328.42 54.3438 1327.95 53.7504C1325.61 50.8575 1322.87 48.3542 1319.77 46.2713C1319.41 46.0458 1318.84 46.3063 1318.88 46.7628C1318.99 48.2291 1319.1 49.7118 1319.2 51.1679C1319.3 52.6239 1319.81 54.4493 1318.75 55.6405C1317.85 56.6545 1316.56 57.5027 1315.53 58.3915C1314.38 59.3649 1313.24 60.3486 1312.09 61.322C1311.75 61.6128 1311.9 62.211 1312.32 62.3375C1313.8 62.7539 1315.28 63.1435 1316.75 63.5598C1318.23 63.9761 1320.66 64.1147 1320.96 65.8336C1321.49 68.9239 1321.94 72.0164 1322.42 75.1027C1322.5 75.6332 1323.24 75.7015 1323.51 75.2731C1324.36 73.9054 1325.21 72.5378 1326.05 71.1866C1326.83 69.9178 1327.85 67.2848 1329.54 67.1885C1331.01 67.0989 1332.69 67.525 1334.16 67.6883C1335.81 67.8677 1337.46 68.0471 1339.11 68.2265C1339.67 68.2788 1339.84 67.6058 1339.57 67.2321C1338.68 66.0431 1337.8 64.8541 1336.93 63.6754C1336.5 63.0861 1336.05 62.4865 1335.61 61.8971C1335.02 61.0921 1334.24 60.4007 1334.39 59.3514C1334.6 57.837 1335.83 56.3225 1336.68 55.0413C1337.54 53.6839 1338.47 52.3839 1339.42 51.1045C1339.72 50.6966 1339.26 50.0702 1338.79 50.2091C1335.05 51.3343 1331.31 52.4595 1327.57 53.5846C1326.84 53.8125 1327.1 54.9617 1327.84 54.7338L1327.8 54.7298Z" fill="white"/>
<path d="M1318.66 55.6325C1305.84 42.5875 1288.57 33.8183 1270.29 32.921C1265.23 32.6772 1259.74 33.0987 1255.86 36.3283C1254.82 37.1904 1253.91 38.2908 1253.62 39.5976C1253.33 40.9043 1253.83 42.45 1255.02 43.0747C1256.92 44.0701 1259.03 42.3932 1260.88 41.301C1265.04 38.8379 1271.53 37.9863 1275.86 38.1619C1292.29 38.8268 1305.24 47.8133 1318.65 55.6222" fill="#FDC000"/>
<path d="M1319.1 55.2201C1311.81 47.8748 1303.24 41.8404 1293.68 37.7706C1284.77 33.9707 1274.21 31.3593 1264.46 32.4218C1260.68 32.8374 1256.26 34.178 1253.96 37.4597C1252.27 39.8988 1252.9 44.2024 1256.59 43.9351C1258.1 43.8227 1259.4 42.8716 1260.65 42.116C1262.95 40.7349 1265.44 39.886 1268.07 39.3721C1273.47 38.2968 1279 38.6547 1284.34 39.8482C1296.78 42.5994 1307.52 49.7766 1318.34 56.1165C1318.99 56.4997 1319.63 55.5048 1318.97 55.1114C1304 46.3556 1287.6 35.1574 1269.31 37.9543C1265.19 38.5907 1262.12 40.1526 1258.5 42.0385C1256.84 42.904 1254.29 43.5555 1254.13 40.2814C1254.05 38.4962 1255.94 36.8855 1257.27 35.9981C1259.13 34.7764 1261.3 34.1154 1263.49 33.7609C1272.54 32.3277 1282.63 34.7386 1291.03 37.978C1301.28 41.9456 1310.48 48.2397 1318.22 56.0181C1318.75 56.5558 1319.64 55.7578 1319.09 55.2099L1319.1 55.2201Z" fill="white"/>
<path d="M849.568 1615.79C850.694 1614.07 849.122 1611.29 848.792 1609.06C848.52 1607.14 848.365 1604.85 849.879 1603.65C851.567 1602.29 854.11 1603.28 855.76 1604.66C857.41 1606.03 858.944 1607.84 861.079 1608.21C865 1608.89 867.912 1604.39 871.794 1603.49C872.104 1603.42 872.415 1603.38 872.726 1603.43C874.24 1603.71 874.278 1605.84 874.046 1607.37C873.366 1611.93 874.162 1617.21 877.85 1619.98C878.859 1620.74 880.024 1621.27 880.995 1622.06C881.965 1622.86 882.742 1624.08 882.548 1625.32C882.354 1626.62 881.189 1627.51 880.082 1628.21C878.219 1629.39 876.22 1630.38 874.162 1631.16C873.405 1631.45 872.59 1631.74 872.163 1632.42C871.852 1632.91 871.774 1633.51 871.755 1634.07C871.716 1635.84 872.201 1637.6 872.124 1639.37C872.046 1641.13 871.173 1643.09 869.464 1643.58C867.679 1644.1 865.893 1642.84 864.592 1641.5C863.292 1640.16 861.991 1638.61 860.147 1638.3C857.915 1637.91 855.896 1639.54 854.013 1640.82C852.13 1642.1 849.393 1642.98 847.743 1641.4C846.579 1640.3 846.579 1638.44 846.909 1636.86C847.239 1635.29 847.86 1633.72 847.627 1632.13C847.297 1629.72 845.181 1628 843.104 1626.74C841.027 1625.48 838.717 1624.31 837.494 1622.22C837.184 1621.71 836.951 1621.13 837.009 1620.53C837.048 1619.98 837.32 1619.48 837.669 1619.05C839.319 1617.11 842.308 1617.29 844.851 1617.54C847.394 1617.79 848.17 1617.93 849.568 1615.79Z" fill="#E94E21"/>
<path d="M1355.13 359C1355.83 361.639 1355.33 364.568 1353.79 366.819C1352.26 369.07 1349.72 370.602 1347 370.932C1349.6 370.292 1352.36 371.766 1353.99 373.901C1355.62 376.035 1356.36 378.673 1357.07 381.273C1356.45 376.52 1360.43 371.689 1365.21 371.378C1362.39 371.922 1359.54 370.195 1357.91 367.847C1356.28 365.5 1355.74 361.813 1355.11 359.019" fill="#E094C0"/>
<path d="M131.53 1006C132.694 1010.4 131.86 1015.27 129.317 1019.04C126.774 1022.8 122.503 1025.36 118 1025.89C122.329 1024.8 126.929 1027.28 129.666 1030.83C132.384 1034.38 133.626 1038.81 134.81 1043.12C133.781 1035.2 140.4 1027.13 148.378 1026.6C143.7 1027.52 138.925 1024.63 136.208 1020.73C133.49 1016.81 132.597 1010.66 131.549 1006" fill="#00A55F"/>
<path d="M616.753 914.9C619.626 911.485 622.479 908.07 625.352 904.636C625.138 908.07 625.158 911.524 625.41 914.958C625.449 915.463 625.488 915.986 625.779 916.394C626.109 916.879 626.691 917.092 627.235 917.306C630.205 918.392 633.175 919.479 636.144 920.585C632.961 922.214 629.758 923.844 626.575 925.474C626.128 925.707 625.682 925.939 625.41 926.347C625.099 926.813 625.099 927.414 625.119 927.977C625.197 931.217 625.274 934.457 625.352 937.697C622.867 934.961 620.402 932.245 617.917 929.509C617.587 929.16 617.238 928.772 616.753 928.695C616.423 928.636 616.093 928.753 615.763 928.85C612.851 929.781 609.939 930.732 607.028 931.663C607.94 928.559 608.852 925.454 609.765 922.35C609.939 921.768 610.095 921.167 609.939 920.585C609.823 920.177 609.551 919.828 609.299 919.479C607.629 917.306 605.96 915.133 604.291 912.979C608.464 912.999 612.638 913.678 616.597 914.978" fill="#9B96C9"/>
<path d="M617.18 915.307C620.053 911.893 622.906 908.478 625.779 905.044L624.769 904.617C624.634 906.984 624.595 909.351 624.653 911.718C624.692 913.173 624.401 915.482 625.313 916.743C626.167 917.927 628.186 918.276 629.467 918.741C631.641 919.537 633.815 920.332 636.009 921.147L635.873 920.061C633.815 921.108 631.738 922.176 629.681 923.223C628.283 923.941 625.895 924.62 624.964 925.978C624.129 927.201 624.575 929.199 624.614 930.557C624.672 932.924 624.731 935.311 624.769 937.678L625.779 937.251C624.323 935.64 622.867 934.049 621.411 932.439C620.674 931.644 619.956 930.829 619.218 930.033C618.713 929.471 618.189 928.714 617.49 928.326C616.248 927.647 614.598 928.578 613.414 928.966C611.22 929.665 609.046 930.363 606.853 931.081L607.591 931.818C608.134 929.956 608.678 928.093 609.221 926.23C609.706 924.601 610.696 922.583 610.541 920.876C610.425 919.537 609.221 918.431 608.445 917.422C607.222 915.831 605.999 914.26 604.795 912.669L604.291 913.561C608.445 913.619 612.482 914.279 616.442 915.54C617.18 915.773 617.49 914.628 616.753 914.395C612.696 913.115 608.542 912.436 604.291 912.378C603.883 912.378 603.495 912.901 603.786 913.27C604.815 914.609 605.844 915.948 606.872 917.267C607.901 918.586 609.551 920.041 609.279 921.885C609.046 923.437 608.367 925.028 607.921 926.522C607.435 928.171 606.95 929.839 606.465 931.488C606.348 931.915 606.756 932.361 607.202 932.226C608.872 931.682 610.522 931.159 612.191 930.615C613.026 930.344 613.86 930.072 614.695 929.82C616.034 929.393 616.811 929.412 617.956 930.402C619.237 931.508 620.324 933.002 621.45 934.243C622.576 935.485 623.78 936.804 624.944 938.085C625.294 938.473 625.973 938.163 625.954 937.658C625.915 935.815 625.876 933.991 625.818 932.148C625.779 930.421 625.099 927.22 626.652 926.056C627.992 925.047 629.875 924.407 631.369 923.631C633.058 922.777 634.747 921.904 636.436 921.05C636.921 920.798 636.746 920.119 636.3 919.964C634.708 919.382 633.136 918.8 631.544 918.218C630.748 917.927 629.952 917.636 629.176 917.344C628.788 917.209 628.38 917.053 627.992 916.918C627.157 916.607 626.788 916.549 626.361 915.676C625.585 914.085 625.818 911.854 625.818 910.088C625.818 908.323 625.857 906.421 625.954 904.598C625.973 904.112 625.274 903.783 624.944 904.171C622.071 907.585 619.218 911 616.345 914.434C615.86 915.016 616.694 915.87 617.18 915.268V915.307Z" fill="white"/>
<path d="M609.105 921.962C588.665 917.558 566.672 920.022 548.658 930.615C543.67 933.545 538.7 937.406 537.012 942.935C536.565 944.41 536.371 946.02 536.934 947.456C537.497 948.892 538.933 950.056 540.447 949.901C542.893 949.648 543.864 946.719 544.931 944.526C547.358 939.559 553.006 934.69 557.257 932.129C573.349 922.447 591.363 922.913 609.085 921.962" fill="#9B96C9"/>
<path d="M609.26 921.38C597.846 918.974 586.064 918.567 574.572 920.585C563.663 922.486 552.152 926.522 543.378 933.467C539.846 936.261 536.138 940.452 536.002 945.205C535.905 948.523 539.147 952.229 542.447 949.687C544.155 948.368 544.776 946.02 545.766 944.197C547.183 941.577 549.221 939.307 551.395 937.29C555.976 933.041 561.586 930.053 567.448 927.938C580.764 923.126 595.129 923.262 609.085 922.525C609.842 922.486 609.862 921.302 609.085 921.341C589.15 922.389 566.245 921.982 550.561 936.455C548.911 937.969 547.396 939.618 546.096 941.441C544.795 943.265 544.077 945.458 542.854 947.359C541.631 949.26 539.127 950.017 537.73 947.728C536.759 946.156 537.225 944.022 537.807 942.392C538.759 939.792 540.506 937.561 542.544 935.699C550.289 928.578 561.547 924.504 571.66 922.331C583.928 919.692 596.681 919.925 608.93 922.505C609.687 922.661 609.998 921.516 609.241 921.361L609.26 921.38Z" fill="white"/>
<path d="M1038.99 422C1039.94 425.57 1039.26 429.528 1037.18 432.593C1035.1 435.659 1031.67 437.735 1028 438.142C1031.51 437.269 1035.26 439.287 1037.47 442.158C1039.69 445.03 1040.69 448.639 1041.65 452.131C1040.81 445.709 1046.19 439.151 1052.65 438.724C1048.85 439.462 1044.98 437.133 1042.77 433.951C1040.56 430.77 1039.84 425.783 1038.99 422Z" fill="#FDC000"/>
<path d="M1175.53 839C1176.69 843.404 1175.86 848.274 1173.32 852.038C1170.75 855.802 1166.5 858.363 1162 858.887C1166.33 857.8 1170.93 860.284 1173.67 863.834C1176.38 867.385 1177.63 871.808 1178.81 876.116C1177.78 868.2 1184.4 860.129 1192.38 859.605C1187.7 860.517 1182.93 857.626 1180.21 853.726C1177.49 849.826 1176.6 843.656 1175.55 839" fill="#E094C0"/>
</svg>

