<svg width="97" height="81" viewBox="0 0 97 81" fill="none" xmlns="http://www.w3.org/2000/svg">
<path d="M76.6589 46.1418C80.3981 45.0167 84.1374 43.8915 87.8766 42.7663C86.0747 45.1871 84.4273 47.7269 82.9386 50.3424C82.703 50.7214 82.5067 51.1476 82.5099 51.5837C82.5154 52.0896 82.8313 52.5373 83.1513 52.9418C84.801 55.1781 86.4445 57.3877 88.0943 59.6239C84.9703 59.2812 81.8629 58.9487 78.739 58.6059C78.3068 58.5658 77.8582 58.5153 77.476 58.689C77.0301 58.8915 76.7371 59.3262 76.481 59.7381C74.9856 62.1439 73.4901 64.5496 71.9947 66.9554C71.4883 63.7622 70.9985 60.5792 70.4819 57.4025C70.4252 56.9789 70.3356 56.5348 70.0138 56.2435C69.7973 56.0403 69.4988 55.969 69.2105 55.8812C66.6349 55.1711 64.0429 54.4508 61.4673 53.7407C63.6329 51.9115 65.782 50.072 67.9476 48.2427C68.3458 47.8963 68.7707 47.5436 68.9319 47.027C69.0441 46.6627 69.0266 46.2863 68.9824 45.9162C68.8032 43.5203 68.6303 41.1512 68.4511 38.7553C71.489 40.7808 74.2134 43.2738 76.486 46.1258" fill="#FDC000"/>
<path d="M76.7962 46.7298C80.5355 45.6046 84.2747 44.4794 88.014 43.3543L87.3821 42.4589C86.1377 44.1298 84.986 45.8354 83.8901 47.5985C83.2038 48.7025 81.8748 50.2522 81.9464 51.6446C82.0095 52.9403 83.3254 54.1694 84.0459 55.1428C85.2456 56.7794 86.4719 58.4099 87.6716 60.0465L88.1298 59.052C86.1192 58.8302 84.0921 58.5982 82.0713 58.3929C80.6822 58.2376 78.615 57.5922 77.2813 58.1567C76.075 58.6633 75.4129 60.3535 74.7778 61.3751C73.6819 63.1382 72.5859 64.9013 71.4899 66.6644L72.5725 66.8348C72.2754 64.9596 71.9783 63.0844 71.6812 61.2092C71.5326 60.2716 71.384 59.334 71.2354 58.3964C71.1226 57.7323 71.1287 56.9136 70.7917 56.3158C70.1963 55.2147 68.5336 55.0949 67.463 54.7949C65.5339 54.2583 63.6048 53.7216 61.649 53.1912L61.8862 54.2067C63.1815 53.1158 64.4705 51.9981 65.7657 50.9071C66.9091 49.9502 68.6058 48.9489 69.3223 47.6124C69.8812 46.5662 69.54 45.1662 69.4444 44.0331C69.3184 42.2871 69.1924 40.5411 69.0664 38.7951L68.1666 39.2867C71.1613 41.3081 73.8031 43.7499 76.0798 46.5586C76.5566 47.152 77.4247 46.3438 76.9479 45.7504C74.6093 42.8575 71.8685 40.3542 68.7749 38.2713C68.4123 38.0458 67.8389 38.3063 67.8751 38.7628C67.9922 40.2291 68.099 41.7118 68.1995 43.1679C68.3001 44.6239 68.8111 46.4493 67.7506 47.6405C66.846 48.6545 65.5645 49.5027 64.5321 50.3915C63.3784 51.3649 62.2413 52.3486 61.0876 53.322C60.7469 53.6128 60.9007 54.211 61.3249 54.3375C62.8031 54.7539 64.2752 55.1435 65.7534 55.5598C67.2317 55.9761 69.6597 56.1147 69.9625 57.8336C70.4871 60.9239 70.9418 64.0164 71.4232 67.1027C71.5048 67.6332 72.2394 67.7015 72.5058 67.2731C73.3559 65.9054 74.2061 64.5378 75.046 63.1866C75.8347 61.9178 76.8543 59.2848 78.5369 59.1885C80.0097 59.0989 81.6875 59.525 83.163 59.6883C84.8114 59.8677 86.4598 60.0471 88.1082 60.2265C88.67 60.2788 88.8369 59.6058 88.5664 59.2321C87.6827 58.0431 86.799 56.8541 85.9318 55.6754C85.4982 55.0861 85.0481 54.4865 84.6145 53.8971C84.0178 53.0921 83.2362 52.4007 83.3857 51.3514C83.5956 49.837 84.8342 48.3225 85.6764 47.0413C86.543 45.6839 87.4654 44.3839 88.4207 43.1045C88.72 42.6966 88.2636 42.0702 87.7887 42.2091C84.0495 43.3343 80.3102 44.4595 76.571 45.5846C75.8351 45.8125 76.1035 46.9617 76.8394 46.7338L76.7962 46.7298Z" fill="white"/>
<path d="M67.6641 47.6325C54.8371 34.5875 37.5695 25.8183 19.2941 24.921C14.2345 24.6772 8.73846 25.0987 4.85667 28.3283C3.81797 29.1904 2.9054 30.2908 2.61879 31.5976C2.33218 32.9043 2.83415 34.45 4.02288 35.0747C5.91825 36.0701 8.0349 34.3932 9.87946 33.301C14.039 30.8379 20.5337 29.9863 24.8586 30.1619C41.29 30.8268 54.24 39.8133 67.6476 47.6222" fill="#FDC000"/>
<path d="M68.1033 47.2201C60.8071 39.8748 52.2388 33.8404 42.678 29.7706C33.7721 25.9707 23.2132 23.3593 13.4562 24.4218C9.67799 24.8374 5.25628 26.178 2.96493 29.4597C1.2659 31.8988 1.90482 36.2024 5.59081 35.9351C7.10058 35.8227 8.40032 34.8716 9.6471 34.116C11.9456 32.7349 14.4388 31.886 17.0667 31.3721C22.4663 30.2968 28.0035 30.6547 33.3413 31.8482C45.7788 34.5994 56.5165 41.7766 67.3403 48.1165C67.9935 48.4997 68.6348 47.5048 67.9652 47.1114C52.9976 38.3556 36.5999 27.1574 18.3138 29.9543C14.1926 30.5907 11.119 32.1526 7.50114 34.0385C5.84319 34.904 3.28972 35.5555 3.13084 32.2814C3.05203 30.4962 4.94457 28.8855 6.27329 27.9981C8.12986 26.7764 10.3006 26.1154 12.4866 25.7609C21.537 24.3277 31.6263 26.7386 40.0349 29.978C50.2764 33.9456 59.4832 40.2397 67.2187 48.0181C67.753 48.5558 68.6376 47.7578 68.0868 47.2099L68.1033 47.2201Z" fill="white"/>
</svg>

