<svg width="46" height="41" viewBox="0 0 46 41" fill="none" xmlns="http://www.w3.org/2000/svg">
<path d="M12.568 12.7937C13.6939 11.067 12.1216 8.29251 11.7916 6.06131C11.5198 4.14053 11.3645 1.85112 12.8786 0.648214C14.5674 -0.709909 17.1102 0.279581 18.7602 1.65711C20.4101 3.03463 21.9437 4.839 24.0789 5.20763C27.9999 5.88669 30.9116 1.38548 34.7938 0.493004C35.1044 0.415397 35.415 0.376595 35.7256 0.434801C37.2397 0.706425 37.2785 2.84062 37.0455 4.37336C36.3661 8.93277 37.162 14.2101 40.8501 16.9845C41.8595 17.7412 43.0242 18.265 43.9947 19.0605C44.9653 19.856 45.7418 21.0783 45.5476 22.32C45.3535 23.6199 44.1888 24.5124 43.0824 25.2108C41.2189 26.3944 39.2196 27.3838 37.162 28.1599C36.405 28.4509 35.5897 28.742 35.1627 29.421C34.8521 29.9061 34.7744 30.5075 34.755 31.0702C34.7162 32.8357 35.2014 34.6013 35.1238 36.3669C35.0461 38.1324 34.1727 40.092 32.4645 40.577C30.6786 41.1009 28.8929 39.8398 27.5923 38.5011C26.2918 37.1623 24.9912 35.6102 23.1471 35.2998C20.9148 34.9117 18.8961 36.5415 17.0132 37.822C15.1303 39.1025 12.3933 39.9756 10.7433 38.404C9.57868 37.2981 9.57869 35.4356 9.90868 33.864C10.2387 32.2925 10.8598 30.7209 10.6269 29.13C10.2969 26.7242 8.1811 24.9974 6.1041 23.7363C4.02711 22.4752 1.71715 21.3111 0.494241 19.2157C0.183662 18.7113 -0.0492723 18.1292 0.00896124 17.5278C0.0477836 16.9845 0.319533 16.4801 0.668935 16.0532C2.31889 14.113 5.30823 14.2877 7.8511 14.5399C10.394 14.7921 11.1704 14.9279 12.568 12.7937Z" fill="#E94E21"/>
</svg>
