<svg width="46" height="41" viewBox="0 0 46 41" fill="none" xmlns="http://www.w3.org/2000/svg">
<path d="M12.568 12.7937C13.6939 11.067 12.1216 8.29253 11.7916 6.06133C11.5198 4.14055 11.3645 1.85113 12.8786 0.64822C14.5674 -0.709904 17.1102 0.279565 18.7602 1.65709C20.4295 3.03462 21.9436 4.83901 24.0788 5.20765C27.9999 5.88671 30.9116 1.38551 34.7938 0.493032C35.1044 0.415425 35.415 0.376623 35.7255 0.434829C37.2396 0.706453 37.2784 2.84065 37.0455 4.37338C36.3661 8.9328 37.162 14.2101 40.8501 16.9845C41.8595 17.7412 43.0242 18.265 43.9947 19.0605C44.9653 19.8559 45.7417 21.0783 45.5476 22.32C45.3535 23.6199 44.1889 24.5124 43.0825 25.2109C41.219 26.3944 39.2195 27.3838 37.1619 28.1599C36.4049 28.4509 35.5897 28.7419 35.1627 29.421C34.8521 29.9061 34.7744 30.5075 34.755 31.0702C34.7162 32.8357 35.2014 34.6013 35.1238 36.3669C35.0462 38.1324 34.1727 40.092 32.4645 40.577C30.6786 41.1009 28.8928 39.8398 27.5922 38.5011C26.2917 37.1624 24.9912 35.6102 23.1471 35.2998C20.9148 34.9118 18.8961 36.5415 17.0132 37.822C15.1303 39.1025 12.3933 39.9756 10.7433 38.404C9.57868 37.2981 9.57869 35.4356 9.90868 33.864C10.2387 32.2925 10.8598 30.7209 10.6269 29.13C10.2969 26.7242 8.1811 24.9974 6.1041 23.7363C4.02711 22.4752 1.71715 21.3111 0.494241 19.2157C0.183662 18.7113 -0.0492723 18.1292 0.00896124 17.5278C0.0477836 16.9845 0.319533 16.4801 0.668935 16.0532C2.31889 14.113 5.30823 14.2877 7.8511 14.5399C10.394 14.7921 11.1704 14.9279 12.568 12.7937Z" fill="#9B96C9"/>
</svg>

