<svg width="29" height="26" viewBox="0 0 29 26" fill="none" xmlns="http://www.w3.org/2000/svg">
<path d="M7.78569 7.97491C8.48449 6.90781 7.51393 5.16165 7.30041 3.78412C7.12571 2.60061 7.02867 1.16487 7.97981 0.408204C9.02802 -0.445473 10.6198 0.175398 11.6486 1.02908C12.6774 1.88275 13.6285 3.00805 14.9679 3.24087C17.4137 3.66771 19.2189 0.85445 21.6453 0.291799C21.8394 0.252995 22.0335 0.214183 22.2276 0.252987C23.1788 0.427603 23.1982 1.74694 23.0623 2.69763C22.6353 5.53029 23.1399 8.82859 25.4305 10.5553C26.0516 11.021 26.7893 11.3508 27.391 11.8553C27.9927 12.3597 28.478 13.1164 28.3616 13.873C28.2257 14.6879 27.5075 15.2312 26.8281 15.6774C25.6634 16.4147 24.4211 17.0355 23.1399 17.5206C22.6741 17.6952 22.1694 17.8892 21.8977 18.2966C21.7036 18.5877 21.6453 18.9757 21.6453 19.3249C21.6259 20.4308 21.9171 21.5173 21.8782 22.6232C21.8394 23.7291 21.2765 24.932 20.2283 25.2425C19.1218 25.5723 17.996 24.7768 17.1807 23.9619C16.3654 23.1471 15.5502 22.1576 14.4243 21.9636C13.0267 21.7307 11.7844 22.7396 10.6003 23.5351C9.41625 24.3306 7.72746 24.8738 6.69867 23.9037C5.98045 23.2053 5.98048 22.0606 6.17459 21.0711C6.3687 20.0816 6.75695 19.1115 6.62107 18.122C6.40754 16.6281 5.08756 15.5416 3.80642 14.7655C2.50587 13.9701 1.06947 13.2522 0.31243 11.9522C0.118318 11.6418 -0.0175671 11.2732 0.00184413 10.9046C0.0212553 10.5553 0.195939 10.2449 0.409463 9.99268C1.43826 8.78977 3.30171 8.88677 4.87401 9.04198C6.44632 9.1972 6.93162 9.27481 7.80512 7.95549L7.78569 7.97491Z" fill="#E94E21"/>
</svg>

