<svg width="101" height="47" viewBox="0 0 101 47" fill="none" xmlns="http://www.w3.org/2000/svg">
<path d="M80.7527 10.8999C83.6255 7.48519 86.479 4.07046 89.3518 0.636353C89.1383 4.07046 89.1577 7.52399 89.4101 10.9581C89.4489 11.4626 89.4877 11.9864 89.7789 12.3939C90.1089 12.8789 90.6912 13.0923 91.2347 13.3058C94.2046 14.3923 97.1745 15.4787 100.144 16.5846C96.961 18.2144 93.7582 19.8441 90.5747 21.4739C90.1283 21.7067 89.6818 21.9395 89.4101 22.3469C89.0995 22.8126 89.0995 23.4141 89.1189 23.9767C89.1965 27.2168 89.2742 30.4569 89.3518 33.697C86.8672 30.9613 84.402 28.2451 81.9173 25.5094C81.5874 25.1602 81.238 24.7722 80.7527 24.6946C80.4227 24.6364 80.0927 24.7528 79.7627 24.8498C76.851 25.7811 73.9393 26.7318 71.0277 27.6631C71.94 24.5588 72.8523 21.4545 73.7646 18.3502C73.9393 17.7681 74.0946 17.1667 73.9393 16.5846C73.8229 16.1772 73.5511 15.828 73.2988 15.4787C71.6294 13.3058 69.96 11.1327 68.2907 8.97915C72.4641 8.99855 76.6375 9.67761 80.5974 10.9775" fill="#9B96C9"/>
<path d="M81.1797 11.3073C84.0526 7.89257 86.906 4.4779 89.7789 1.04379L88.7695 0.616948C88.6336 2.98396 88.5948 5.35098 88.653 7.718C88.6918 9.17313 88.4007 11.4819 89.313 12.743C90.1671 13.9266 92.1859 14.2758 93.467 14.7414C95.641 15.5369 97.8151 16.3324 100.009 17.1472L99.8727 16.0607C97.8151 17.1084 95.7381 18.1755 93.6805 19.2232C92.2829 19.9411 89.8953 20.6201 88.9636 21.9782C88.1289 23.2006 88.5754 25.199 88.6142 26.5571C88.6724 28.9241 88.7307 31.3106 88.7695 33.6776L89.7789 33.2507C88.323 31.6404 86.8672 30.0494 85.4113 28.4391C84.6737 27.6436 83.9555 26.8287 83.2179 26.0333C82.7132 25.4706 82.1891 24.7139 81.4903 24.3259C80.248 23.6468 78.598 24.5781 77.4139 24.9661C75.2205 25.6646 73.0464 26.3631 70.853 27.0809L71.5906 27.8182C72.1341 25.9556 72.6776 24.093 73.2211 22.2305C73.7064 20.6007 74.6964 18.583 74.5411 16.8756C74.4246 15.5369 73.2211 14.431 72.4447 13.4221C71.2218 11.8312 69.9989 10.2596 68.7954 8.66867L68.2907 9.56113C72.4447 9.61934 76.4822 10.279 80.4421 11.5401C81.1797 11.773 81.4903 10.6283 80.7527 10.3955C76.6957 9.11494 72.5417 8.43586 68.2907 8.37765C67.883 8.37765 67.4948 8.90148 67.786 9.27012C68.8148 10.6088 69.8436 11.9476 70.8724 13.2669C71.9012 14.5862 73.5511 16.0413 73.2794 17.8845C73.0464 19.4366 72.367 21.0276 71.9206 22.5216C71.4353 24.1707 70.95 25.8392 70.4647 27.4884C70.3483 27.9152 70.7559 28.3614 71.2024 28.2256C72.8717 27.6824 74.5217 27.1585 76.191 26.6153C77.0257 26.3437 77.8604 26.072 78.6951 25.8198C80.0344 25.393 80.8109 25.4124 81.9562 26.4019C83.2373 27.5078 84.3243 29.0017 85.4502 30.2434C86.576 31.4851 87.7795 32.8045 88.9442 34.085C89.2936 34.473 89.973 34.1626 89.9536 33.6581C89.9147 31.815 89.8759 29.9912 89.8177 28.1481C89.7789 26.4213 89.0995 23.22 90.6524 22.0559C91.9917 21.047 93.8746 20.4067 95.3693 19.6306C97.0581 18.777 98.7468 17.9039 100.436 17.0502C100.921 16.798 100.746 16.119 100.3 15.9637C98.708 15.3817 97.1357 14.7996 95.544 14.2175C94.7481 13.9265 93.9523 13.6355 93.1758 13.3445C92.7876 13.2087 92.38 13.0535 91.9917 12.9177C91.1571 12.6072 90.7882 12.549 90.3612 11.6759C89.5848 10.085 89.8177 7.85382 89.8177 6.08826C89.8177 4.3227 89.8565 2.42129 89.9536 0.597527C89.973 0.112483 89.2742 -0.217349 88.9442 0.170686C86.0713 3.5854 83.2179 7.00012 80.345 10.4342C79.8597 11.0163 80.6944 11.87 81.1797 11.2685V11.3073Z" fill="white"/>
<path d="M73.1047 17.9621C52.6647 13.5579 30.6718 16.0219 12.6582 26.6153C7.66954 29.5449 2.70028 33.4059 1.0115 38.9354C0.565045 40.4099 0.370931 42.0202 0.933856 43.456C1.49678 44.8917 2.93321 46.0558 4.44728 45.9006C6.89309 45.6484 7.86365 42.7187 8.93126 40.5263C11.3577 35.5595 17.0063 30.6896 21.2574 28.1286C37.3493 18.4471 55.3628 18.9128 73.0852 17.9621" fill="#9B96C9"/>
<path d="M73.26 17.38C61.8462 14.9742 50.0636 14.5668 38.5722 16.5846C27.6631 18.4859 16.1522 22.5215 7.37838 29.4674C3.84554 32.2612 0.138005 36.452 0.00212623 41.2054C-0.0949297 44.5231 3.14674 48.2288 6.44664 45.6872C8.15483 44.3679 8.77598 42.0203 9.76595 40.1965C11.183 37.5773 13.2211 35.3073 15.3952 33.2895C19.9762 29.0405 25.5861 26.0526 31.4483 23.9378C44.7643 19.1262 59.1286 19.262 73.0853 18.5247C73.8423 18.4859 73.8617 17.3024 73.0853 17.3412C53.15 18.3889 30.2448 17.9815 14.5605 32.4552C12.9106 33.9686 11.3965 35.6177 10.0959 37.4414C8.7954 39.2652 8.07718 41.4576 6.85427 43.359C5.63137 45.2604 3.12733 46.0171 1.72972 43.7277C0.759161 42.1561 1.22503 40.0219 1.80737 38.3922C2.75852 35.7923 4.50552 33.5611 6.54369 31.6985C14.2888 24.5781 25.5472 20.5038 35.6605 18.3308C47.9283 15.6921 60.6815 15.9249 72.93 18.5054C73.687 18.6606 73.9976 17.5159 73.2405 17.3607L73.26 17.38Z" fill="white"/>
</svg>

