<svg width="97" height="66" viewBox="0 0 97 66" fill="none" xmlns="http://www.w3.org/2000/svg">
<path d="M77.1374 20.8896C80.1594 18.4123 83.1813 15.9351 86.2032 13.4578C85.4581 16.3842 84.9094 19.3474 84.5572 22.3476C84.5016 22.7954 84.4644 23.2372 84.6421 23.6484C84.8565 24.1086 85.3227 24.4034 85.7583 24.6675C88.1326 26.086 90.5069 27.5046 92.8873 28.9416C89.8667 29.8236 86.8644 30.6994 83.8499 31.5998C83.4447 31.7346 83.015 31.8571 82.7078 32.1637C82.3761 32.5194 82.2652 33.047 82.1973 33.5194C81.7347 36.3109 81.2782 39.1208 80.8156 41.9123C79.1237 39.1626 77.4318 36.413 75.7583 33.6572C75.5377 33.3012 75.2863 32.9145 74.8875 32.7609C74.6113 32.6688 74.3105 32.687 74.0159 32.7237C71.364 33.0537 68.6936 33.3897 66.0417 33.7197C67.3328 31.2047 68.6176 28.6714 69.9087 26.1564C70.1423 25.6902 70.3882 25.1995 70.3518 24.6595C70.3276 24.2791 70.156 23.9477 70.0028 23.6102C68.9242 21.4744 67.8457 19.3386 66.7671 17.2028C70.3573 17.9103 73.8243 19.1699 77.0269 20.9263" fill="#00A55F"/>
<path d="M77.4623 21.3745C80.4843 18.8973 83.5062 16.42 86.5281 13.9428L85.6079 13.3287C85.1584 15.114 84.7764 16.9177 84.4619 18.7398C84.2152 20.1509 83.5691 22.206 83.9976 23.6174C84.3955 24.9368 86.0461 25.5328 87.1198 26.1776C88.9357 27.2707 90.7702 28.3577 92.5862 29.4507L92.673 28.3586C90.7145 28.9282 88.7744 29.4917 86.822 30.0797C85.4774 30.4656 83.2308 30.6608 82.2233 31.7524C81.2895 32.7582 81.3554 34.74 81.1395 35.9977C80.8188 37.9242 80.498 39.8506 80.1773 41.777L81.2516 41.5629C80.2708 39.9671 79.2839 38.3529 78.3031 36.7571C77.8434 35.9899 77.3652 35.2288 76.9055 34.4616C76.5132 33.8356 76.1578 33.0132 75.5873 32.5282C74.5936 31.6933 72.9421 32.263 71.8064 32.4158C69.8604 32.6541 67.9145 32.8924 65.9562 33.1552L66.5264 34.0084C67.3317 32.4319 68.1371 30.8555 68.9425 29.279C69.5696 28.0277 70.651 26.6047 70.8731 25.1814C71.052 24.0586 70.2917 23.0029 69.8137 22.0578C68.9313 20.3271 68.0733 18.6087 67.1908 16.8779L66.5763 17.7979C70.1297 18.5177 73.5046 19.7465 76.695 21.4662C77.3699 21.8347 77.8925 20.7612 77.2237 20.4111C73.9536 18.6362 70.4682 17.3827 66.8228 16.6323C66.2704 16.5093 65.9753 17.0982 66.2082 17.5524C66.8701 18.8657 67.5319 20.1791 68.1938 21.4925C68.537 22.1553 68.8556 22.8058 69.1988 23.4687C69.6829 24.4322 69.7563 24.8372 69.338 25.9169C68.317 28.5056 66.7314 30.9959 65.4711 33.4802C65.2682 33.8543 65.5931 34.4006 66.0412 34.3333C67.5513 34.1378 69.0492 33.9667 70.5593 33.7712C71.2653 33.6795 71.9712 33.5878 72.6833 33.5146C73.8987 33.3557 74.6844 33.3806 75.5122 34.4548C76.3399 35.529 77.0263 36.916 77.7557 38.1251C78.6017 39.4999 79.4476 40.8747 80.2935 42.2496C80.5571 42.6731 81.2877 42.5323 81.3679 42.0354C81.6208 40.4586 81.8983 38.8942 82.1512 37.3174C82.3733 36.0168 82.3265 33.0471 83.61 32.2931C84.1566 31.9681 85.0037 31.8704 85.6176 31.6867C86.4219 31.4601 87.22 31.2151 88.0059 30.9946C89.682 30.4984 91.3826 30.0146 93.0587 29.5185C93.5806 29.3654 93.5565 28.6782 93.1455 28.4264C91.7958 27.6281 90.4584 26.8052 89.1086 26.0068C88.397 25.5893 87.6792 25.1532 86.9675 24.7357C85.8693 24.0786 85.1329 23.8327 85.1772 22.2436C85.2531 19.3967 86.1026 16.3539 86.7862 13.6116C86.9155 13.1392 86.2836 12.6542 85.866 12.9975L76.8002 20.4293C76.2044 20.9137 76.8604 21.9019 77.4561 21.4175L77.4623 21.3745Z" fill="white"/>
<path d="M69.3935 25.7144C52.5441 18.6006 33.2349 17.1304 16.0249 23.3247C11.2543 25.0341 6.36025 27.541 4.00575 32.025C3.37871 33.215 2.95405 34.5831 3.20465 35.8901C3.45526 37.1971 4.48545 38.4493 5.83572 38.5727C7.98389 38.7579 9.28709 36.4025 10.5713 34.6667C13.4778 30.7966 19.1336 27.5047 23.1982 26.0097C38.6277 20.3053 54.0316 23.6265 69.4058 25.6899" fill="#00A55F"/>
<path d="M69.664 25.1746C60.1409 21.2061 49.9536 18.9307 39.611 18.8333C30.005 18.7363 19.5568 20.3507 10.9844 24.8376C7.48422 26.6765 3.59639 29.6871 2.70308 33.7669C2.09929 36.5644 4.05442 40.1671 7.33317 38.8926C9.02166 38.2492 9.97461 36.3783 11.0253 35.0474C12.6843 32.9008 14.8156 31.19 17.094 29.737C21.6507 26.8311 26.8511 25.1219 32.1612 24.235C44.5372 22.1429 57.0384 24.6098 69.2948 26.2789C70.0435 26.3774 70.29 25.2118 69.5412 25.1132C52.467 22.7974 33.1661 18.7686 17.3714 28.1726C13.7666 30.3121 11.426 32.9308 8.79631 36.0954C7.8317 37.2546 7.61663 37.5306 6.04533 37.4807C4.55382 37.4247 4.15499 37.2711 3.82479 35.7247C3.55576 34.4238 4.09084 33.0804 4.72396 31.9702C5.97177 29.7559 7.92502 28.0634 10.0621 26.7392C17.9043 21.9022 28.2176 20.2509 37.2715 20.0408C48.2097 19.7765 59.0722 22.0523 69.1414 26.2481C69.8532 26.543 70.3819 25.488 69.6701 25.1931L69.664 25.1746Z" fill="white"/>
</svg>

